inDegrees=yes
name=ik_S49_A03_T01
DataType=double
version=3
OpenSimVersion=4.3-2021-08-27-4bc7ad9
endheader
time	pelvis_tilt	pelvis_list	pelvis_rotation	pelvis_tx	pelvis_ty	pelvis_tz	hip_flexion_r	hip_adduction_r	hip_rotation_r	knee_angle_r	knee_angle_r_beta	ankle_angle_r	subtalar_angle_r	mtp_angle_r	hip_flexion_l	hip_adduction_l	hip_rotation_l	knee_angle_l	knee_angle_l_beta	ankle_angle_l	subtalar_angle_l	mtp_angle_l	lumbar_extension	lumbar_bending	lumbar_rotation	arm_flex_r	arm_add_r	arm_rot_r	elbow_flex_r	pro_sup_r	wrist_flex_r	wrist_dev_r	arm_flex_l	arm_add_l	arm_rot_l	elbow_flex_l	pro_sup_l	wrist_flex_l	wrist_dev_l
0	0	0	0	0	0.9399999999999999	0	0	0	0	0	0	0	0	0	0	0	0	0	0	0	0	0	0	0	0	0	0	0	0	89.99999999963507	0	0	0	0	0	0	89.99999999869995	0	0
0.02	0.2050939824351102	-0.9604601918216882	-82.10951339172145	0	0.9399999999999999	0	0.02454793018616019	-2.877828065824892	-6.3893618005132	2.734033090182368	0.04771787928215736	0	0	0	-1.221106081278788	-0.9325743264203095	-4.219251675469802	0.1287032057896881	0.002246294698901886	0	0	0	0	0	0	1.750006799768347	-1.750006799768347	0.3112479985617707	8.605644510327885	89.68875201935641	0	0	1.750006799768347	-1.750006799768347	0.3112479985617707	8.605644510327885	89.68875201847968	0	0
0.04	0.1852217850213613	-0.9626245194438637	-82.08365616823941	0	0.9399999999999999	0	0.07129978842799628	-2.874903115154014	-6.398096907809983	2.792244258943418	0.04873385583847178	0	0	0	-1.183898842734058	-0.9477433445708491	-4.220488511719503	0.1562211346168662	0.002726573160265605	0	0	0	0	0	0	1.909391763794514	-1.909391763794514	0.34082253925982	9.019494253283236	89.65917748040007	0	0	1.909391763794514	-1.909391763794514	0.34082253925982	9.019494253283236	89.65917747952889	0	0
0.06	0.1665735711935731	-0.9420092441031096	-82.06849952885867	0	0.9399999999999999	0	0.1413517617762034	-2.873254464479183	-6.384639494446636	2.8427744632594	0.0496157742754911	0	0	0	-1.144318393574684	-0.9515328144602239	-4.227027175713045	0.1173511397707535	0.002048163769967712	0	0	0	0	0	0	2.773139367344471	-2.77313936734447	0.5001180999544805	11.72032042926979	89.49988192907276	0	0	2.773139367344471	-2.77313936734447	0.5001180999544805	11.72032042926979	89.49988192823142	0	0
0.08	0.154934591789628	-0.931337547339955	-82.0399850354821	0	0.9399999999999999	0	0.2266214355739533	-2.876442675215252	-6.39287445590904	3.039836504393619	0.05305515572398372	0	0	0	-1.064655076289599	-0.9516164882344376	-4.206169751479562	0.3051851560029756	0.005326485800464463	0	0	0	0	0	0	3.631343996213081	-3.63134399621308	0.6572074213344553	14.54897781288852	89.34279261691684	0	0	3.631343996213081	-3.63134399621308	0.6572074213344553	14.54897781288852	89.3427926161049	0	0
0.1	0.139821321775533	-0.9613781703002352	-82.03623670810052	0	0.9399999999999999	0	0.2029312457287776	-2.851122608588634	-6.347634678446656	2.865369888469317	0.05001013884129227	0	0	0	-1.114647566672555	-0.931789994797925	-4.178604263035222	0.1263466026312305	0.002205164214623903	0	0	0	0	0	0	3.743387435359496	-3.743387435359496	0.6772734788020411	14.78975823980029	89.32272656062081	0	0	3.743387435359496	-3.743387435359496	0.6772734788020411	14.78975823980029	89.32272655981262	0	0
0.12	0.1068826337040852	-0.962196375990949	-82.0215349398963	0	0.9399999999999999	0	0.2569238481493032	-2.807065857020268	-6.311520621936991	2.878018105494962	0.05023089187289659	0	0	0	-1.08700780148978	-0.9465773287766814	-4.153031564798487	0.1375329039860961	0.002400402004386611	0	0	0	0	0	0	3.902324595103361	-3.90232459510336	0.7059545599502761	15.23762298917365	89.29404548115093	0	0	3.902324595103361	-3.90232459510336	0.7059545599502761	15.23762298917365	89.29404548034813	0	0
0.14	0.08578571217364851	-0.958255674423046	-82.01450820358578	0	0.9399999999999999	0	0.3081652360075622	-2.803476113336291	-6.302760072826889	2.887522707819461	0.0503967784775518	0	0	0	-1.057079085513968	-0.9596738264944099	-4.129016987606027	0.1171475017786618	0.002044609616523562	0	0	0	0	0	0	3.989252006827208	-3.989252006827207	0.7215835941468748	15.47558596409426	89.27841644786812	0	0	3.989252006827208	-3.989252006827207	0.7215835941468748	15.47558596409426	89.27841644706821	0	0
0.16	0.0420082097437583	-0.9629631387057825	-82.01959455693039	0	0.9399999999999999	0	0.3553546595059498	-2.787013790252175	-6.27306492244971	2.888258456405997	0.05040961971285376	0	0	0	-1.035331398189384	-0.9721053570802081	-4.137521983416913	0.1382064147639161	0.002412156985007238	0	0	0	0	0	0	4.116435088526593	-4.116435088526592	0.7445533152836779	15.85547844315547	89.25544672807597	0	0	4.116435088526593	-4.116435088526592	0.7445533152836779	15.85547844315547	89.25544672728036	0	0
0.18	0.04059649641622939	-0.9518837385210631	-82.01941116386648	0	0.9399999999999999	0	0.4280257913125073	-2.799038125361951	-6.246035215858497	2.932382845150702	0.05117973557687879	0	0	0	-1.004248693741509	-0.98447751259783	-4.142867831126627	0.1364713630972097	0.002381874620730996	0	0	0	0	0	0	4.223322436207103	-4.223322436207103	0.763828369545457	16.17597696481463	89.23617167494216	0	0	4.223322436207103	-4.223322436207103	0.763828369545457	16.17597696481463	89.23617167415019	0	0
0.2	0.04127622615346065	-0.9806148823395382	-81.98266128432596	0	0.9399999999999999	0	0.5102464250441432	-2.795015628334766	-6.141295787084928	2.931447724309569	0.05116341463929699	0	0	0	-1.017987021778083	-1.025636221724964	-4.175804681776876	0.1419916752905943	0.002478222244243546	0	0	0	0	0	0	4.224665490732349	-4.224665490732349	0.7640832698792235	16.18451103519343	89.2359167746235	0	0	4.224665490732349	-4.224665490732349	0.7640832698792235	16.18451103519343	89.2359167738316	0	0
0.22	0.04296908724658584	-0.951940144792341	-81.99223144088825	0	0.9399999999999999	0	0.5550401667146867	-2.809674850411531	-6.124388697539099	3.008956920940437	0.05251620532108134	0	0	0	-0.9718520723317335	-1.01495744149711	-4.196475528407291	0.1776249790048323	0.003100140717420125	0	0	0	0	0	0	4.323414822646863	-4.323414822646863	0.7817685076929711	16.48012246249771	89.21823153784318	0	0	4.323414822646863	-4.323414822646863	0.7817685076929711	16.48012246249771	89.21823153705456	0	0
0.24	0.02084907069571018	-0.9745774176952654	-82.00066033760939	0	0.9399999999999999	0	0.5863645832139239	-2.767521378257177	-6.023781429874003	2.980201845268835	0.05201433457395176	0	0	0	-0.983607253504616	-1.042830109726765	-4.089141842604219	0.1419591517898645	0.002477654602071536	0	0	0	0	0	0	4.479588121642508	-4.479588121642509	0.8095402956607672	16.91334259510948	89.19045975149497	0	0	4.479588121642508	-4.479588121642509	0.8095402956607672	16.91334259510948	89.19045975071154	0	0
0.26	-0.001212569600406358	-0.9084470237792269	-82.02019768869901	0	0.9399999999999999	0	0.750748871658391	-2.787349355338508	-5.98056214694819	3.170551897358627	0.05533656971426135	0	0	0	-0.8566725228213046	-1.072645047631743	-4.123821945750568	0.3015889322927786	0.005263719856083238	0	0	0	0	0	0	4.592207268328576	-4.592207268328576	0.8300106681805615	17.3262378098255	89.16998938017599	0	0	4.592207268328576	-4.592207268328576	0.8300106681805615	17.3262378098255	89.1699893793965	0	0
0.28	-0.0001223706289925186	-0.9498585617079124	-82.02195832258316	0	0.9399999999999999	0	0.6642131024811921	-2.762944191284257	-5.969449473322038	3.023047334112823	0.05276212942390585	0	0	0	-0.9273307625486042	-1.039153057200315	-4.08534707245455	0.1167262178966971	0.002037256825697695	0	0	0	0	0	0	4.719478842215143	-4.719478842215143	0.8537519397780033	17.97979849102475	89.14624810998116	0	0	4.719478842215143	-4.719478842215143	0.8537519397780033	17.97979849102475	89.14624810920601	0	0
0.3	-0.01742007668425653	-0.9296726581462824	-82.02023660656653	0	0.9399999999999999	0	0.7711988033680954	-2.77613718401301	-5.895654324002896	3.064805216924776	0.05349094196763638	0	0	0	-0.9222919473892313	-1.053922124717029	-4.061970551846898	0.01234442583063777	0.000215450875012865	0	0	0	0	0	0	4.865892890436998	-4.865892890436998	0.8797001756121887	18.37892151844115	89.12029987565901	0	0	4.865892890436998	-4.865892890436998	0.8797001756121887	18.37892151844115	89.12029987488873	0	0
0.32	-0.02376278476649882	-0.9271421675370147	-82.04263074349095	0	0.9399999999999999	0	0.8546302347307688	-2.755238518971002	-5.763717696991193	3.131452028478774	0.05465414826520984	0	0	0	-0.9114279118488748	-1.042967543748412	-4.062451530590076	-0.09890867835450595	-0.001726282096082176	0	0	0	0	0	0	5.488759979650457	-5.488759979650457	0.9906193818077931	20.40232875739608	89.00938067593674	0	0	5.488759979650457	-5.488759979650457	0.9906193818077931	20.40232875739608	89.00938067518726	0	0
0.34	-0.0271481753562058	-0.9409285675276331	-82.016586172784	0	0.9399999999999999	0	0.8970267154500867	-2.729555837969889	-5.643759560618371	3.126229425338409	0.05456299664488549	0	0	0	-0.913937402518178	-1.006163315997527	-3.932055118259104	-0.09392507224581423	-0.001639301760863003	0	0	0	0	0	0	5.489938608532744	-5.489938608532744	0.9908330361776021	20.40821556420697	89.00916702157949	0	0	5.489938608532744	-5.489938608532744	0.9908330361776021	20.40821556420697	89.00916702083005	0	0
0.36	-0.02706685150371414	-0.9383766797809067	-82.00995727908287	0	0.9399999999999999	0	0.9870192538644988	-2.70098724113269	-5.463330865286336	3.133813304403327	0.05469536030464137	0	0	0	-0.8959736227633089	-0.9601340045970748	-3.835266758769587	-0.1104216259745809	-0.001927220938662129	0	0	0	0	0	0	5.491460529274543	-5.491460529274543	0.9911136223253331	20.41626690353948	89.00888643544829	0	0	5.491460529274543	-5.491460529274543	0.9911136223253331	20.41626690353948	89.00888643469895	0	0
0.3800000000000001	-0.02384069677190547	-0.9403293551248194	-82.02209244730736	0	0.9399999999999999	0	1.060875421186808	-2.6770487823698	-5.238113806948096	3.150722460237802	0.05499048074768577	0	0	0	-0.8965189395738826	-0.9144576643600238	-3.799673290747644	-0.1527199619161993	-0.002665466168958026	0	0	0	0	0	0	5.49316638108699	-5.49316638108699	0.9914310160613058	20.42556497643143	89.00856904173108	0	0	5.49316638108699	-5.49316638108699	0.9914310160613058	20.42556497643143	89.00856904098178	0	0
0.4000000000000001	-0.02817653552746468	-0.937579284422309	-82.04671261520835	0	0.9399999999999999	0	1.124147302138319	-2.664606230010264	-5.050503296974988	3.165077246520147	0.05524101903173281	0	0	0	-0.9175892249490495	-0.8841049701831752	-3.818958623386215	-0.2313425672164153	-0.00403768949794274	0	0	0	0	0	0	5.495339634449237	-5.495339634449237	0.9918369853621554	20.43756025200001	89.00816307245422	0	0	5.495339634449237	-5.495339634449237	0.9918369853621554	20.43756025200001	89.00816307170503	0	0
0.4200000000000001	-0.03923208592027911	-0.9162703852484599	-82.07903957623107	0	0.9399999999999999	0	1.171018141726459	-2.685611563213945	-4.963540513979089	3.166230507828252	0.05526114723869509	0	0	0	-0.9218709356735479	-0.8834576658813693	-3.96180226791073	-0.3100364018819861	-0.005411156013877001	0	0	0	0	0	0	5.4979479670942	-5.4979479670942	0.9923253964685936	20.45205575096125	89.00767466137663	0	0	5.4979479670942	-5.4979479670942	0.9923253964685936	20.45205575096125	89.00767466062759	0	0
0.4400000000000001	-0.06308148520308844	-0.8952749858313361	-82.09624962510922	0	0.9399999999999999	0	1.213197020891287	-2.699836901792898	-4.949094424558316	3.1627692027335	0.05520073606837562	0	0	0	-0.9062995682533392	-0.8735710096713564	-3.982954565174621	-0.3987937649916612	-0.006960264235528985	0	0	0	0	0	0	5.63799857351786	-5.63799857351786	1.016896292113232	20.85283176332961	88.98310376716078	0	0	5.63799857351786	-5.63799857351786	1.016896292113232	20.85283176332961	88.98310376641635	0	0
0.4600000000000001	-0.1158673988924345	-0.8179717696521415	-82.08846547785409	0	0.9399999999999999	0	1.308318897217583	-2.685612592394957	-4.955192594564397	3.170689568261466	0.05533897252480008	0	0	0	-0.794057140478731	-0.8733096330087907	-3.880459520936358	-0.434183320605062	-0.00757792850180047	0	0	0	0	0	0	5.776766627926207	-5.776766627926206	1.041182447738431	21.25182817825624	88.95881761294707	0	0	5.776766627926207	-5.776766627926206	1.041182447738431	21.25182817825624	88.95881761220717	0	0
0.4800000000000001	-0.1177558768890394	-0.8302616034388574	-82.08634793512365	0	0.9399999999999999	0	1.279511584025413	-2.710708504754951	-4.978842787818272	3.095672086814395	0.05402967047699493	0	0	0	-0.7570054663241214	-0.8769609874333222	-3.794938463507858	-0.3295242715496798	-0.00575128350377779	0	0	0	0	0	0	5.915244531803188	-5.915244531803186	1.065516357927794	21.6798697688571	88.93448370417364	0	0	5.915244531803188	-5.915244531803186	1.065516357927794	21.6798697688571	88.93448370343829	0	0
